<svg id="Capa_1" enable-background="new 0 0 512 512" height="512" viewBox="0 0 512 512" width="512" xmlns="http://www.w3.org/2000/svg"><g><path d="m217.92 220.211-93.953-35.001c-21.478-8.001-32.403-31.899-24.402-53.377.614-1.648 2.448-2.486 4.096-1.872l87.985 32.777c23.126 8.615 34.889 34.347 26.274 57.473z" fill="#655e67"/><ellipse cx="91.998" cy="347.308" fill="#766d78" rx="84.498" ry="83.993"/><ellipse cx="91.998" cy="347.308" fill="#fff" rx="47.951" ry="47.664"/><ellipse cx="420.002" cy="347.308" fill="#766d78" rx="84.498" ry="83.993"/><path d="m91.998 263.314c-5.122 0-10.129.478-15 1.346 39.507 7.04 69.498 41.35 69.498 82.647s-29.991 75.607-69.498 82.647c4.871.868 9.878 1.346 15 1.346 46.667 0 84.498-37.605 84.498-83.993s-37.831-83.993-84.498-83.993z" fill="#655e67"/><path d="m418.996 263.314c-4.946 0-9.784.446-14.497 1.257 39.755 6.837 70.001 41.265 70.001 82.737s-30.246 75.9-70.001 82.737c4.713.81 9.551 1.257 14.497 1.257 46.667 0 84.498-37.605 84.498-83.993s-37.831-83.995-84.498-83.995z" fill="#655e67"/><ellipse cx="420.002" cy="347.308" fill="#fff" rx="47.951" ry="47.664"/><path d="m411.129 355.369-71.671-213.193-34.406-24.24 14.027-19.632 44.583 28.734 73.786 219.482c2.457 7.309-1.513 15.221-8.843 17.618-7.246 2.372-15.047-1.544-17.476-8.769z" fill="#c8c3ca"/><ellipse cx="305.052" cy="103.578" fill="#c8c3ca" rx="22.879" ry="22.879" transform="matrix(.707 -.707 .707 .707 16.107 246.042)"/><path d="m97.613 343.873 70.836-124.418 39.417 28.083-69.289 120.28z" fill="#b1abb4"/><path d="m228.512 377.305-137.103-14.462v-22.3l127.058-31.853c18.947-2.774 36.556 10.337 39.33 29.285 2.774 18.947-10.337 36.556-29.285 39.33z" fill="#e3e0e4"/><path d="m289.921 155.014c2.057-.071 4.122-.078 6.194-.022 12.876.349 25.564 3.165 37.379 8.296l22.621 9.823 19.22-18.927c8.079-7.956 20.736-8.879 29.883-2.178l34.353 25.163c17.521 12.834 18.431 38.675 1.855 52.709l-70.227 59.46c-19.767 16.736-31.166 41.323-31.166 67.223 0 11.93-9.672 21.602-21.602 21.602h-112.36c-10.603 0-15.601-13.093-7.694-20.158l28.181-25.183c2.452-2.191 3.853-5.323 3.853-8.611v-33.639c0-4.17-2.248-8.016-5.881-10.062l-159.542-89.842c-1.262-.711-1.431-2.46-.329-3.399 20.833-17.757 50-22.004 75.032-10.925l49.434 21.879c9.172 4.06 19.927 1.49 26.273-6.278 18.42-22.548 45.624-35.939 74.523-36.931" fill="#f7d958"/><path d="m439.571 177.167-34.353-25.163c-8.679-6.357-20.511-5.84-28.601 1.025l32.954 24.138c17.521 12.834 18.431 38.675 1.855 52.709l-70.227 59.46c-19.767 16.736-31.166 41.324-31.166 67.224 0 11.931-9.672 21.602-21.602 21.602h30c11.931 0 21.602-9.671 21.602-21.602 0-25.9 11.399-50.487 31.166-67.224l70.227-59.46c16.576-14.034 15.666-39.875-1.855-52.709z" fill="#f3c625"/><path d="m440.62 177.983-40.638 10.315c-19.383 4.92-17.833 32.951 1.973 35.705l39.843 5.539c15.844-13.812 15.183-38.578-1.178-51.559z" fill="#fff"/><path d="m440.62 177.983-24.053 6.105c9.269 12.299 9.007 29.766-1.166 41.784l26.397 3.67c15.844-13.812 15.183-38.578-1.178-51.559z" fill="#e7e7e7"/><path d="" style="fill:none;stroke:#000;stroke-width:15;stroke-linecap:round;stroke-linejoin:round;stroke-miterlimit:10"/><path d="m422.363 255.844 23.91-20.244c9.665-8.184 14.953-20.136 14.507-32.793-.445-12.656-6.561-24.207-16.777-31.69l-34.353-25.163c-9.741-7.137-22.34-7.78-32.499-2.331l-6.379-18.974c-.542-1.612-1.616-2.993-3.046-3.914l-32.544-20.975c-1.884-14.955-14.673-26.562-30.131-26.562-16.751 0-30.379 13.628-30.379 30.379s13.628 30.379 30.379 30.379c2.818 0 5.544-.394 8.135-1.115l19.944 14.051 3.174 9.44c-12.7-5.488-26.152-8.463-39.986-8.839-4.105-.104-7.588 3.153-7.7 7.294s3.153 7.588 7.294 7.701c11.971.325 23.61 2.908 34.595 7.678l22.621 9.823c2.805 1.219 6.069.61 8.25-1.536l19.22-18.928c5.485-5.402 13.978-6.021 20.188-1.472l22.612 16.563-25.26 6.411c-12.275 3.116-20.053 13.705-19.353 26.349.699 12.644 9.596 22.311 22.138 24.054l23.243 3.232-57.813 48.949c-8.748 7.407-15.977 16.205-21.475 25.932l-11.123-18.414c-18.168-30.076-46.521-52.794-79.833-63.967l-23.687-7.944c-3.926-1.315-8.178.799-9.495 4.726s.798 8.178 4.726 9.496l23.686 7.944c29.945 10.044 55.432 30.465 71.763 57.501l16.536 27.375c-3.222 9.653-4.917 19.867-4.917 30.298 0 7.776-6.326 14.102-14.103 14.102h-18.907l15.519-15.519c2.929-2.929 2.929-7.678 0-10.606-2.929-2.929-7.677-2.929-10.607 0l-25.809 25.809c-.102.102-.191.21-.286.316h-19.219l15.519-15.519c2.929-2.929 2.929-7.678 0-10.606-2.929-2.929-7.677-2.929-10.607 0l-25.81 25.809c-.102.102-.191.21-.285.316h-31.867c-2.516 0-3.482-1.821-3.781-2.604s-.792-2.785 1.084-4.462l28.18-25.182c4.04-3.609 6.357-8.786 6.357-14.204v-33.639c0-6.868-3.718-13.228-9.702-16.597l-152.311-85.767c17.891-11.695 40.942-13.773 60.756-5.003l49.434 21.879c12.225 5.41 26.661 1.957 35.117-8.391 11.293-13.824 26.232-24.066 43.203-29.617 3.936-1.288 6.084-5.523 4.796-9.461-1.287-3.936-5.521-6.085-9.46-4.796-14.916 4.88-28.477 12.886-39.876 23.45-6.055-9.404-14.935-16.581-25.605-20.556l-87.984-32.777c-2.674-.996-5.577-.891-8.172.295-2.597 1.187-4.575 3.314-5.569 5.986l-1.113 2.986c-4.03 10.82-3.841 22.48.369 32.971-11.615 2.886-22.622 8.396-32.003 16.391-2.38 2.03-3.621 5.102-3.319 8.216s2.109 5.89 4.836 7.425l84.188 47.408-11.977 21.037c-12.794-6.439-27.091-9.833-41.521-9.833-9.218 0-18.321 1.354-27.057 4.023-3.962 1.21-6.191 5.403-4.981 9.364 1.211 3.962 5.41 6.19 9.364 4.98 7.314-2.235 14.943-3.368 22.674-3.368 11.835 0 23.554 2.725 34.087 7.892l-10.608 18.632c-7.308-3.396-15.364-5.194-23.479-5.194-30.576 0-55.451 24.747-55.451 55.165s24.875 55.165 55.451 55.165c19.574 0 37.701-10.308 47.68-26.997l22.91 2.417c-12.153 27.669-39.856 45.909-70.59 45.909-42.458-.001-76.999-34.316-76.999-76.495 0-24.126 11.666-47.117 31.206-61.502 3.336-2.456 4.049-7.151 1.594-10.486-2.457-3.336-7.151-4.049-10.486-1.594-23.365 17.2-37.314 44.707-37.314 73.582 0 50.45 41.271 91.494 91.998 91.494 38.303 0 72.668-23.749 86.109-59.272l15.075 1.59c.187.02.371.023.555.029 3.356 2.857 7.673 4.513 12.336 4.513h112.359c5.903 0 11.397-1.772 15.99-4.804 5.841 14.676 15.481 27.797 27.964 37.782 16.255 13.001 36.717 20.162 57.616 20.162 50.727 0 91.998-41.044 91.998-91.494 0-49.665-39.996-90.214-89.637-91.464zm-132.69-152.266c0-8.48 6.899-15.379 15.379-15.379s15.379 6.899 15.379 15.379-6.899 15.379-15.379 15.379-15.379-6.899-15.379-15.379zm65.026 60.4-8.132-24.191c-.509-1.512-1.485-2.823-2.79-3.741l-16.593-11.69c2.285-2.432 4.172-5.239 5.563-8.318l24.643 15.882 7.427 22.094zm-249.594-25.475 83.922 31.264c8.798 3.278 15.888 9.611 20.126 17.924-4.244 4.745-11.128 6.27-16.994 3.674l-49.434-21.879c-11.301-5.002-23.456-7.141-35.443-6.578-4.092-7.522-4.878-16.272-2.177-24.405zm116.456 188.725-28.182 25.183c-3.844 3.435-6.027 8.099-6.329 12.978l-88.142-9.297v-9.698l120.994-30.333c1-.133 2.005-.211 3.009-.234v8.383c.001 1.151-.491 2.251-1.35 3.018zm1.351-36.657v10.267c-1.847.027-3.696.163-5.531.431-.248.036-.494.085-.738.146l-36.307 9.102 19.956-35.05 20.56 11.578c1.27.716 2.06 2.067 2.06 3.526zm-35.691-22.464-27.02 47.458-44.141 11.066 42.506-74.66zm-95.223 119.365c-22.305 0-40.451-18.018-40.451-40.165s18.146-40.165 40.451-40.165c5.519 0 10.993 1.141 16.021 3.292l-12.094 21.243-6.34 1.59c-3.336.836-5.676 3.835-5.676 7.275v22.3c0 3.837 2.896 7.056 6.713 7.458l31.889 3.363c-7.603 8.664-18.693 13.809-30.513 13.809zm312.218-116.263 26.122 77.702c.547 1.625.424 3.364-.346 4.897-.769 1.533-2.09 2.67-3.72 3.204-3.317 1.083-6.921-.723-8.034-4.033l-24.505-72.894zm-13.146 48.03 12.95 38.521c2.993 8.903 11.371 14.564 20.311 14.564 2.191 0 4.417-.34 6.604-1.056 5.459-1.786 9.886-5.597 12.462-10.731 2.577-5.134 2.988-10.96 1.158-16.406l-11.742-34.927c16.19 5.364 27.638 20.583 27.638 38.104 0 22.147-18.146 40.165-40.451 40.165s-40.45-18.018-40.45-40.165c.002-10.691 4.142-20.618 11.52-28.069zm2.692-112.689c-.236-4.259 1.76-9.381 8.065-10.982l36.76-9.33c4.397 4.583 6.975 10.61 7.203 17.098.24 6.808-2.143 13.289-6.606 18.272l-36.197-5.033c-6.443-.896-8.99-5.766-9.225-10.025zm26.24 217.252c-17.761 0-34.444-5.835-48.247-16.875-12.764-10.209-21.982-24.316-26.165-39.927 1.251-3.243 1.944-6.761 1.944-10.439 0-9.697 1.735-19.172 5.021-28.035.109-.242.203-.491.285-.743 4.79-12.539 12.694-23.822 23.206-32.721l5.368-4.545 4.48 13.326c-13.382 10.414-21.342 26.535-21.342 43.466 0 30.418 24.875 55.165 55.45 55.165 30.576 0 55.451-24.747 55.451-55.165 0-27.646-20.716-51.124-48.216-54.694l-7.328-21.797c.031 0 .061-.002.092-.002 42.457 0 76.998 34.315 76.998 76.494s-34.54 76.492-76.997 76.492z"/></g></svg>